<?xml version="1.0" standalone="no"?>
<svg viewBox="0 0 200 200" xmlns="http://www.w3.org/2000/svg">
  <path fill="#000000" d="M50.1,-77.7C64.3,-68.9,74.6,-53.8,78.2,-38C81.8,-22.2,78.7,-5.7,70.9,6.3C63.1,18.3,50.7,25.7,42.3,38.1C33.9,50.5,29.4,67.9,18.4,78.2C7.4,88.6,-10.3,91.9,-22.5,84.6C-34.6,77.3,-41.3,59.4,-51.4,45.7C-61.6,31.9,-75.3,22.4,-81,9.2C-86.7,-4,-84.3,-20.7,-75.3,-31.9C-66.3,-43,-50.6,-48.6,-36.9,-57.6C-23.2,-66.7,-11.6,-79.1,3.2,-84.1C18,-89,36,-86.5,50.1,-77.7Z" transform="translate(100 100)" />
</svg>
